<?xml version="1.0" encoding="iso-8859-1"?>
<!-- Generator: Adobe Illustrator 19.0.0, SVG Export Plug-In . SVG Version: 6.00 Build 0)  -->
<svg version="1.1" id="Layer_1" xmlns="http://www.w3.org/2000/svg" transform="rotate(270)" xmlns:xlink="http://www.w3.org/1999/xlink" x="0px" y="0px"
	 viewBox="0 0 512.001 512.001" style="enable-background:new 0 0 512.001 512.001;" xml:space="preserve">
<g>
	<g>
		<path d="M411.728,136.139l-33.032-55.054c-1.493-2.487-4.181-4.009-7.082-4.009s-5.589,1.522-7.082,4.009l-19.938,33.23
			c-8.488-49.544-40.586-93.341-85.181-113.577c-2.168-0.984-4.655-0.984-6.824,0c-44.596,20.234-76.692,64.034-85.18,113.578
			l-19.939-33.232c-1.491-2.487-4.18-4.009-7.08-4.009c-2.9,0-5.589,1.522-7.081,4.009l-33.032,55.054
			c-0.77,1.284-1.177,2.753-1.177,4.249v275.269v33.032c0,4.561,3.697,8.258,8.258,8.258h2.753v38.538h-2.753
			c-4.561,0-8.258,3.697-8.258,8.258s3.697,8.258,8.258,8.258h66.065c4.561,0,8.258-3.697,8.258-8.258s-3.697-8.258-8.258-8.258
			h-2.753v-38.538h27.527v24.774c0,4.561,3.697,8.258,8.258,8.258h41.29v13.763c0,4.561,3.697,8.258,8.258,8.258
			c4.562,0,8.258-3.697,8.258-8.258v-13.763h41.29c4.562,0,8.258-3.697,8.258-8.258v-24.774h27.527v38.538h-2.753
			c-4.562,0-8.258,3.697-8.258,8.258s3.696,8.258,8.258,8.258h66.065c4.562,0,8.258-3.697,8.258-8.258s-3.696-8.258-8.258-8.258
			h-2.753v-38.538h2.753c4.562,0,8.258-3.697,8.258-8.258v-33.032V140.388C412.904,138.891,412.497,137.422,411.728,136.139z
			 M371.613,101.385l18.446,30.744h-36.894L371.613,101.385z M140.387,101.385l18.446,30.744H121.94L140.387,101.385z
			 M154.151,495.484h-27.527v-38.538h27.527V495.484z M247.742,473.463H214.71v-16.516h33.032V473.463z M297.291,473.463h-33.032
			v-16.516h33.032V473.463z M297.291,281.986v158.445h-33.032v-24.774c0-4.561-3.696-8.258-8.258-8.258
			c-4.561,0-8.258,3.697-8.258,8.258v24.774H214.71v-24.774c0-4.561-3.697-8.258-8.258-8.258c-4.561,0-8.258,3.697-8.258,8.258
			v24.774h-82.581v-24.774c0-9.856,6.238-24.489,13.347-31.315l69.233-66.465v64.748c0,4.561,3.697,8.258,8.258,8.258
			c4.561,0,8.258-3.697,8.258-8.258V281.986v-87.173c0-28.746,15.723-54.194,41.29-67.28c25.567,13.086,41.29,38.534,41.29,67.28
			V281.986z M259.413,110.847c-2.168-0.984-4.655-0.984-6.824,0c-33.552,15.223-54.394,47.397-54.394,83.966v87.173
			c0,6.802-4.469,17.287-9.376,21.997l-71.296,68.445c-0.645,0.62-1.283,1.275-1.909,1.962V148.646h49.548v132.832
			c0,4.561,3.697,8.258,8.258,8.258c4.561,0,8.258-3.697,8.258-8.258v-141.09c0-52.117,29.717-101.04,74.323-122.996
			c44.606,21.955,74.323,70.878,74.323,122.996v170.451l-7.14-6.855c-4.906-4.71-9.376-15.195-9.376-21.997v-87.173
			C313.807,158.244,292.963,126.07,259.413,110.847z M385.377,495.484H357.85v-38.538h27.527V495.484z M396.387,440.431h-82.581
			V317.878l69.234,66.464c7.11,6.826,13.346,21.458,13.346,31.315V440.431z M396.387,374.389c-0.626-0.687-1.263-1.342-1.908-1.962
			l-47.64-45.734V148.646h49.548V374.389z"/>
	</g>
</g>
<g>
	<g>
		<path d="M272.516,186.555h-33.032c-4.561,0-8.258,3.697-8.258,8.258c0,4.561,3.697,8.258,8.258,8.258h33.032
			c4.562,0,8.258-3.697,8.258-8.258C280.774,190.252,277.078,186.555,272.516,186.555z"/>
	</g>
</g>
<g>
</g>
<g>
</g>
<g>
</g>
<g>
</g>
<g>
</g>
<g>
</g>
<g>
</g>
<g>
</g>
<g>
</g>
<g>
</g>
<g>
</g>
<g>
</g>
<g>
</g>
<g>
</g>
<g>
</g>
</svg>
